<?xml version="1.0" standalone="no"?>
<!DOCTYPE svg PUBLIC "-//W3C//DTD SVG 20010904//EN"
 "http://www.w3.org/TR/2001/REC-SVG-20010904/DTD/svg10.dtd">
<svg version="1.0" xmlns="http://www.w3.org/2000/svg"
 width="512.000000pt" height="512.000000pt" viewBox="0 0 512.000000 512.000000"
 preserveAspectRatio="xMidYMid meet">
<metadata>
Created by potrace 1.11, written by Peter Selinger 2001-2013
</metadata>
<g transform="translate(0.000000,512.000000) scale(0.100000,-0.100000)"
fill="#000000" stroke="none">
<path d="M0 2560 l0 -2560 2560 0 2560 0 0 2560 0 2560 -2560 0 -2560 0 0
-2560z m2284 1934 c162 -13 227 -14 348 -5 223 16 260 15 293 -11 16 -12 45
-59 68 -107 134 -291 1023 -2586 1230 -3176 85 -241 85 -250 10 -287 -47 -22
-55 -23 -408 -26 -407 -4 -546 5 -601 39 -42 25 -44 32 -94 214 -50 185 -77
252 -103 267 -31 17 -1040 18 -1079 1 -31 -14 -56 -74 -99 -241 -36 -140 -70
-221 -101 -245 -39 -29 -135 -37 -478 -37 -331 0 -416 6 -483 36 -69 31 -69
32 99 509 129 366 344 957 589 1615 165 445 461 1258 485 1335 19 60 48 113
67 124 24 14 26 14 257 -5z m-1304 -4199 c0 -5 -5 -3 -10 5 -5 8 -10 20 -10
25 0 6 5 3 10 -5 5 -8 10 -19 10 -25z"/>
<path d="M2442 3069 c-104 -277 -225 -650 -234 -719 -5 -40 31 -49 219 -56
183 -7 291 0 319 21 17 12 17 19 7 81 -24 134 -216 757 -248 801 -8 11 -22
-17 -63 -128z"/>
</g>
</svg>
