<?xml version="1.0" standalone="no"?>
<!DOCTYPE svg PUBLIC "-//W3C//DTD SVG 20010904//EN"
 "http://www.w3.org/TR/2001/REC-SVG-20010904/DTD/svg10.dtd">
<svg version="1.0" xmlns="http://www.w3.org/2000/svg"
 width="600.000000pt" height="600.000000pt" viewBox="0 0 600.000000 600.000000"
 preserveAspectRatio="xMidYMid meet">
<metadata>
Created by potrace 1.11, written by Peter Selinger 2001-2013
</metadata>
<g transform="translate(0.000000,600.000000) scale(0.100000,-0.100000)"
fill="#000000" stroke="none">
<path d="M2725 5990 c-179 -19 -293 -39 -477 -85 -125 -32 -321 -96 -393 -129
-16 -8 -52 -24 -80 -36 -521 -228 -1002 -645 -1312 -1135 -197 -313 -354 -707
-408 -1027 -3 -18 -8 -40 -10 -48 -2 -8 -7 -35 -10 -60 -3 -25 -8 -61 -11 -80
-20 -140 -27 -525 -12 -680 83 -845 523 -1620 1209 -2126 197 -146 501 -316
659 -369 3 -1 19 -7 35 -14 119 -49 389 -127 505 -146 19 -3 46 -8 60 -10 14
-3 41 -7 60 -10 19 -3 46 -7 60 -10 129 -26 711 -27 792 -1 7 3 36 7 63 10
160 18 500 110 688 188 17 7 106 50 198 96 479 237 895 610 1185 1062 165 257
310 582 369 827 3 10 14 55 25 101 23 96 48 234 56 307 3 28 8 61 11 75 9 43
11 502 2 580 -14 130 -26 219 -34 260 -87 458 -257 858 -520 1225 -27 39 -52
72 -55 75 -3 3 -32 39 -65 80 -104 131 -356 374 -490 472 -5 4 -23 18 -40 32
-45 35 -201 138 -280 183 -350 202 -725 329 -1120 379 -22 3 -51 8 -65 11 -41
8 -519 10 -595 3z"/>
</g>
</svg>
